# Blender v2.75 (sub 0) OBJ File: 'LevelTest.blend'
# www.blender.org
mtllib houseside.mtl
o Cube.014_Cube.057
v 0.420940 -2.000000 1.838708
v 0.420940 2.000000 1.838708
v 0.420940 -2.000000 -2.161292
v 0.420940 2.000000 -2.161292
v -0.418780 2.000000 1.854522
v -0.418780 -2.000000 1.854522
v -0.418780 -2.000000 -2.170842
v -0.418780 2.000000 -2.170842
vt 0.643642 1.002122
vt 0.643642 0.862774
vt 0.495580 0.862774
vt 0.970848 0.804267
vt 0.970848 0.664919
vt 1.001935 0.664919
vt 0.705807 0.664368
vt 0.705807 0.525020
vt 0.674725 0.525020
vt 0.674725 0.833520
vt 0.643642 0.833520
vt 0.643642 0.694172
vt 0.643642 0.778197
vt 0.495580 1.002122
vt 1.001935 0.804267
vt 0.674725 0.664919
vt 0.674725 0.693621
vt 0.495580 0.778197
vn 1.000000 0.000000 0.000000
vn 0.018800 0.000000 0.999800
vn 0.000000 1.000000 0.000000
vn 0.000000 -1.000000 0.000000
vn -1.000000 0.000000 -0.000000
g Cube.014_Cube.057_Material.007
usemtl Material.007
s off
f 1/1/1 3/2/1 4/3/1
f 1/4/2 2/5/2 5/6/2
f 2/7/3 4/8/3 8/9/3
f 7/10/4 3/11/4 1/12/4
f 7/13/5 6/2/5 5/3/5
f 2/14/1 1/1/1 4/3/1
f 6/15/2 1/4/2 5/6/2
f 5/16/3 2/7/3 8/9/3
f 6/17/4 7/10/4 1/12/4
f 8/18/5 7/13/5 5/3/5
